<?xml version="1.0" encoding="utf-8"?>
<!-- Generator: Adobe Illustrator 18.0.0, SVG Export Plug-In . SVG Version: 6.00 Build 0)  -->
<!DOCTYPE svg PUBLIC "-//W3C//DTD SVG 1.1//EN" "http://www.w3.org/Graphics/SVG/1.1/DTD/svg11.dtd" [
	<!ENTITY ns_flows "http://ns.adobe.com/Flows/1.0/">
	<!ENTITY ns_extend "http://ns.adobe.com/Extensibility/1.0/">
	<!ENTITY ns_ai "http://ns.adobe.com/AdobeIllustrator/10.0/">
	<!ENTITY ns_graphs "http://ns.adobe.com/Graphs/1.0/">
]>
<svg version="1.1" xmlns:x="&ns_extend;" xmlns:i="&ns_ai;" xmlns:graph="&ns_graphs;"
	 xmlns="http://www.w3.org/2000/svg" xmlns:xlink="http://www.w3.org/1999/xlink" xmlns:a="http://ns.adobe.com/AdobeSVGViewerExtensions/3.0/"
	 x="0px" y="0px" viewBox="0 0 1430.2 261.9" enable-background="new 0 0 1430.2 261.9" xml:space="preserve">
<g id="Laag_1">
</g>
<g id="Layer_3">
	<g>
		<g>
			<path fill="#71327A" d="M250.8,221.3H24c-13.3,0-24-10.7-24-24V24C0,10.7,10.7,0,24,0h202.8c13.3,0,24,10.7,24,24V221.3z"/>
			<g>
				<path fill="none" stroke="#71327A" stroke-width="9.0092" stroke-miterlimit="10" d="M272.2,113.9
					c-12-39.8-42.1-68.5-100.3-79.9c-3.4,5.4,25.8,21.9,23.9,37C130.9-6,2.6,58.1,23.5,175.9c8.7,49.1,50.2,81.4,93.2,81.4
					c62.4,0,80.8-40.9,80.8-63.6c0-34.3-30.5-53-39.9-52.8C202,134.1,252.7,147.5,272.2,113.9z M156.9,189.9
					c11.4-16.8-16.8-23.8-6.4-14c8.2,11.1-7.5,9.9-5.8,9.8c-6.2-1.4-9.8-5.9-9.2-13.5c0,0.1,0,0.2,0,0.1
					c8.5-20.6,33.4-10.5,34.3,11.9c1.5,40.1-50.7,51.2-66.3,14.2c-9.5-22.5,8.9-53.4,39.9-55.6c-12.1,4.2-21.7,15.2-22.1,27.5
					C118.3,189.9,143.7,204,156.9,189.9z"/>
				<path fill="#93B31E" d="M272.2,113.9c-12-39.8-42.1-68.5-100.3-79.9c-3.4,5.4,25.8,21.9,23.9,37C130.9-6,2.6,58.1,23.5,175.9
					c8.7,49.1,50.2,81.4,93.2,81.4c62.4,0,80.8-40.9,80.8-63.6c0-34.3-30.5-53-39.9-52.8C202,134.1,252.7,147.5,272.2,113.9z
					 M156.9,189.9c11.4-16.8-16.8-23.8-6.4-14c8.2,11.1-7.5,9.9-5.8,9.8c-6.2-1.4-9.8-5.9-9.2-13.5c0,0.1,0,0.2,0,0.1
					c8.5-20.6,33.4-10.5,34.3,11.9c1.5,40.1-50.7,51.2-66.3,14.2c-9.5-22.5,8.9-53.4,39.9-55.6c-12.1,4.2-21.7,15.2-22.1,27.5
					C118.3,189.9,143.7,204,156.9,189.9z"/>
			</g>
			<circle fill="#71327A" cx="228.1" cy="97.8" r="11.7"/>
		</g>
	</g>
	<g>
		<path fill="#93B31E" d="M838,207.9h-17.1V118h-30.8v-14.7h78.6V118H838V207.9z"/>
		<path fill="#93B31E" d="M916.4,127.4c3.4,0,6.2,0.2,8.4,0.7l-1.6,15.7c-2.4-0.6-4.9-0.9-7.4-0.9c-6.7,0-12.2,2.2-16.3,6.6
			c-4.2,4.4-6.3,10.1-6.3,17.1v41.3h-16.8v-79.1h13.2l2.2,13.9h0.9c2.6-4.7,6-8.5,10.3-11.2C907,128.8,911.6,127.4,916.4,127.4z"/>
		<path fill="#93B31E" d="M985.3,207.9l-3.4-11h-0.6c-3.8,4.8-7.7,8.1-11.5,9.8c-3.9,1.7-8.8,2.6-14.9,2.6c-7.8,0-13.8-2.1-18.2-6.3
			s-6.5-10.1-6.5-17.8c0-8.2,3-14.3,9.1-18.5c6.1-4.1,15.3-6.4,27.7-6.8l13.7-0.4v-4.2c0-5.1-1.2-8.8-3.5-11.3s-6-3.8-11-3.8
			c-4.1,0-7.9,0.6-11.7,1.8c-3.7,1.2-7.3,2.6-10.7,4.2l-5.4-12c4.3-2.2,9-3.9,14.1-5.1c5.1-1.2,9.9-1.8,14.4-1.8
			c10.1,0,17.7,2.2,22.8,6.6c5.1,4.4,7.7,11.3,7.7,20.7v53.3H985.3z M960.3,196.5c6.1,0,11-1.7,14.7-5.1c3.7-3.4,5.5-8.2,5.5-14.3
			v-6.9l-10.2,0.4c-7.9,0.3-13.7,1.6-17.3,4c-3.6,2.4-5.4,6-5.4,10.8c0,3.5,1,6.3,3.1,8.2C952.9,195.5,956.1,196.5,960.3,196.5z"/>
		<path fill="#93B31E" d="M1089.8,207.9h-16.9v-48.6c0-6.1-1.2-10.7-3.7-13.7c-2.5-3-6.4-4.5-11.7-4.5c-7.1,0-12.3,2.1-15.6,6.3
			c-3.3,4.2-4.9,11.2-4.9,21.1v39.4h-16.8v-79.1h13.2l2.4,10.4h0.9c2.4-3.8,5.8-6.7,10.2-8.7c4.4-2,9.2-3.1,14.6-3.1
			c19,0,28.5,9.7,28.5,29V207.9z"/>
		<path fill="#93B31E" d="M1165.7,185.4c0,7.7-2.8,13.6-8.4,17.8c-5.6,4.1-13.7,6.2-24.2,6.2c-10.5,0-19-1.6-25.4-4.8V190
			c9.3,4.3,17.9,6.4,26,6.4c10.3,0,15.5-3.1,15.5-9.4c0-2-0.6-3.7-1.7-5c-1.1-1.3-3-2.7-5.6-4.1c-2.6-1.4-6.3-3.1-10.9-4.9
			c-9.1-3.5-15.3-7.1-18.5-10.6c-3.2-3.5-4.8-8.1-4.8-13.7c0-6.8,2.7-12,8.2-15.8c5.5-3.7,12.9-5.6,22.3-5.6
			c9.3,0,18.1,1.9,26.4,5.6l-5.4,12.7c-8.5-3.5-15.7-5.3-21.5-5.3c-8.9,0-13.3,2.5-13.3,7.6c0,2.5,1.2,4.6,3.5,6.3
			c2.3,1.7,7.4,4.1,15.1,7.1c6.5,2.5,11.3,4.8,14.2,6.9c3,2.1,5.1,4.5,6.6,7.3C1165,178.3,1165.7,181.6,1165.7,185.4z"/>
		<path fill="#93B31E" d="M1200.1,207.9h-16.8V96.6h16.8V207.9z"/>
		<path fill="#93B31E" d="M1273,207.9l-3.4-11h-0.6c-3.8,4.8-7.7,8.1-11.5,9.8c-3.9,1.7-8.8,2.6-14.9,2.6c-7.8,0-13.8-2.1-18.2-6.3
			s-6.5-10.1-6.5-17.8c0-8.2,3-14.3,9.1-18.5c6.1-4.1,15.3-6.4,27.7-6.8l13.7-0.4v-4.2c0-5.1-1.2-8.8-3.5-11.3
			c-2.4-2.5-6-3.8-11-3.8c-4.1,0-7.9,0.6-11.7,1.8c-3.7,1.2-7.3,2.6-10.7,4.2l-5.4-12c4.3-2.2,9-3.9,14.1-5.1
			c5.1-1.2,9.9-1.8,14.4-1.8c10.1,0,17.7,2.2,22.8,6.6c5.1,4.4,7.7,11.3,7.7,20.7v53.3H1273z M1248,196.5c6.1,0,11-1.7,14.7-5.1
			c3.7-3.4,5.5-8.2,5.5-14.3v-6.9l-10.2,0.4c-7.9,0.3-13.7,1.6-17.3,4c-3.6,2.4-5.4,6-5.4,10.8c0,3.5,1,6.3,3.1,8.2
			C1240.7,195.5,1243.8,196.5,1248,196.5z"/>
		<path fill="#93B31E" d="M1337.4,195.7c4.1,0,8.2-0.6,12.3-1.9v12.7c-1.9,0.8-4.3,1.5-7.2,2c-2.9,0.5-6,0.8-9.1,0.8
			c-15.9,0-23.9-8.4-23.9-25.2v-42.6h-10.8v-7.4l11.6-6.2l5.7-16.7h10.4v17.6h22.5v12.7h-22.5v42.3c0,4.1,1,7,3,9
			C1331.4,194.8,1334.1,195.7,1337.4,195.7z"/>
		<path fill="#93B31E" d="M1399.4,209.3c-12.3,0-21.9-3.6-28.9-10.8c-6.9-7.2-10.4-17.1-10.4-29.6c0-12.9,3.2-23.1,9.7-30.5
			c6.4-7.4,15.3-11.1,26.5-11.1c10.4,0,18.7,3.2,24.7,9.5c6.1,6.3,9.1,15.1,9.1,26.2v9.1h-52.7c0.2,7.7,2.3,13.6,6.2,17.7
			c3.9,4.1,9.4,6.2,16.5,6.2c4.7,0,9-0.4,13.1-1.3c4-0.9,8.4-2.3,13-4.4V204c-4.1,2-8.2,3.3-12.4,4.1
			C1409.6,208.9,1404.8,209.3,1399.4,209.3z M1396.4,140.1c-5.3,0-9.6,1.7-12.8,5.1c-3.2,3.4-5.1,8.3-5.8,14.8h35.9
			c-0.1-6.5-1.7-11.5-4.7-14.8C1405.9,141.8,1401.7,140.1,1396.4,140.1z"/>
	</g>
	<g>
		<g>
			<path fill="#93B31E" d="M338.9,260.9l-8.1-22c13.3-3.3,22-10.8,25.1-27.8l-34.4-91h28.4l18.3,55.3l19.5-55.3h28
				C373,234.5,374.9,248.6,338.9,260.9z"/>
			<path fill="#93B31E" d="M462.6,211.2c-33.3,0-46.3-22.2-46.3-47.9c0-24.7,13.2-46.9,46.3-46.9c33.7,0,45.8,20.9,45.8,46.7
				C508.3,188.7,495.7,211.2,462.6,211.2z M462.6,136.7c-9.5-0.3-20.1,5.2-20.1,27c0,19.5,8.8,27.2,20.1,27.3
				c9.5,0.1,19.6-5.7,19.6-27.3C482.2,141.9,471.9,136.4,462.6,136.7z"/>
			<path fill="#93B31E" d="M738.8,230c-18.9-3.2-36.8-18.4-36.8-44.1v-45.2h-13.4V120h13.4V94.9h26.5V120h17.1v20.8h-17.1v47.9
				c0.1,10.5,7.2,18.7,18.3,20.1L738.8,230z"/>
		</g>
		<path fill="#93B31E" d="M575.6,211.3l-4.6-11.1c-29.4,22.6-58,7.2-58-15.2c0-29.9,29-33.5,56.2-33.5c0-6.1,0.9-14.4-10.1-14.4
			c-12.3,0-25.1,3.7-33.7,7.8l-9.1-21.8c11.7-4,79.8-20.8,79.8,22v36c0,7,2.7,17.7,5,30.2H575.6z M569.4,170.6
			c-13,0-29.6,0.2-28.8,13.2c0.5,7.6,14.4,13.1,28.8-2.9V170.6z"/>
		<path fill="#93B31E" d="M606.5,204.8l9.1-21.8c5.8,2,40,15.8,40.3,0.8c0.2-10.8-47.4-7.4-47.1-40.3c0.3-31.5,41.4-30.7,71.6-21.6
			l-8.9,21.6c-22.4-10.2-35.4-7.3-35.4,0c0,12.8,47.1,5.4,47.1,40.3C683.2,216.1,637.6,214.8,606.5,204.8z"/>
	</g>
	<g>
		<path fill="#71327A" d="M341,77.3h-57c-4.9,0-9-4.1-9-9v-49c0-4.9,4.1-9,9-9h57c5,0,9,4.1,9,9v49C350,73.3,346,77.3,341,77.3z"/>
		<polygon fill="#71327A" points="292.5,63.6 290.3,99.7 321.3,70.7 		"/>
	</g>
</g>
</svg>
