<?xml version="1.0" encoding="utf-8"?>
<!-- Generator: Adobe Illustrator 18.0.0, SVG Export Plug-In . SVG Version: 6.00 Build 0)  -->
<!DOCTYPE svg PUBLIC "-//W3C//DTD SVG 1.1//EN" "http://www.w3.org/Graphics/SVG/1.1/DTD/svg11.dtd" [
	<!ENTITY ns_flows "http://ns.adobe.com/Flows/1.0/">
	<!ENTITY ns_extend "http://ns.adobe.com/Extensibility/1.0/">
	<!ENTITY ns_ai "http://ns.adobe.com/AdobeIllustrator/10.0/">
	<!ENTITY ns_graphs "http://ns.adobe.com/Graphs/1.0/">
]>
<svg version="1.1" xmlns:x="&ns_extend;" xmlns:i="&ns_ai;" xmlns:graph="&ns_graphs;"
	 xmlns="http://www.w3.org/2000/svg" xmlns:xlink="http://www.w3.org/1999/xlink" xmlns:a="http://ns.adobe.com/AdobeSVGViewerExtensions/3.0/"
	 x="0px" y="0px" viewBox="0 0 777.8 276.8" enable-background="new 0 0 777.8 276.8" xml:space="preserve">
<g id="Laag_1">
</g>
<g id="Layer_3">
	<g>
		<g>
			<path fill="#71327A" d="M265.1,233.9H24c-13.3,0-24-10.7-24-24V24C0,10.7,10.7,0,24,0h217.1c13.3,0,24,10.7,24,24V233.9z"/>
			<g>
				<path fill="none" stroke="#71327A" stroke-width="9.5219" stroke-miterlimit="10" d="M287.7,120.4C275,78.3,243.3,47.9,181.7,36
					c-3.6,5.7,27.3,23.2,25.2,39.1C138.4-6.4,2.7,61.4,24.9,186c9.2,51.9,53,86,98.5,86c66,0,85.4-43.2,85.4-67.2
					c0-36.3-32.3-56-42.2-55.8C213.5,141.7,267.1,155.9,287.7,120.4z M165.8,200.7c12-17.8-17.8-25.2-6.7-14.8
					c8.7,11.8-7.9,10.5-6.2,10.4c-6.6-1.5-10.4-6.2-9.7-14.3c0,0.1,0,0.2,0,0.1c8.9-21.8,35.3-11.1,36.2,12.5
					c1.6,42.4-53.6,54.2-70.1,15c-10-23.8,9.4-56.5,42.2-58.7c-12.8,4.4-22.9,16-23.4,29C125.1,200.7,151.9,215.6,165.8,200.7z"/>
				<path fill="#93B31E" d="M287.7,120.4C275,78.3,243.3,47.9,181.7,36c-3.6,5.7,27.3,23.2,25.2,39.1C138.4-6.4,2.7,61.4,24.9,186
					c9.2,51.9,53,86,98.5,86c66,0,85.4-43.2,85.4-67.2c0-36.3-32.3-56-42.2-55.8C213.5,141.7,267.1,155.9,287.7,120.4z M165.8,200.7
					c12-17.8-17.8-25.2-6.7-14.8c8.7,11.8-7.9,10.5-6.2,10.4c-6.6-1.5-10.4-6.2-9.7-14.3c0,0.1,0,0.2,0,0.1
					c8.9-21.8,35.3-11.1,36.2,12.5c1.6,42.4-53.6,54.2-70.1,15c-10-23.8,9.4-56.5,42.2-58.7c-12.8,4.4-22.9,16-23.4,29
					C125.1,200.7,151.9,215.6,165.8,200.7z"/>
			</g>
			<circle fill="#71327A" cx="241" cy="103.3" r="12.4"/>
		</g>
	</g>
	<g>
		<path fill="#93B31E" d="M351.4,231.3H339v-65.1h-22.3v-10.6h56.9v10.6h-22.3V231.3z"/>
		<path fill="#93B31E" d="M407.7,173c2.4,0,4.5,0.2,6.1,0.5l-1.2,11.3c-1.7-0.4-3.5-0.6-5.4-0.6c-4.9,0-8.8,1.6-11.8,4.8
			c-3,3.2-4.5,7.3-4.5,12.4v29.9h-12.2v-57.2h9.5l1.6,10.1h0.6c1.9-3.4,4.4-6.1,7.4-8.1C400.9,174,404.2,173,407.7,173z"/>
		<path fill="#93B31E" d="M456.9,231.3l-2.4-8H454c-2.8,3.5-5.5,5.9-8.3,7.1c-2.8,1.3-6.4,1.9-10.8,1.9c-5.6,0-10-1.5-13.2-4.6
			c-3.2-3-4.7-7.3-4.7-12.9c0-5.9,2.2-10.4,6.6-13.4c4.4-3,11.1-4.6,20-4.9l9.9-0.3v-3.1c0-3.7-0.9-6.4-2.6-8.2
			c-1.7-1.8-4.4-2.7-7.9-2.7c-2.9,0-5.7,0.4-8.4,1.3c-2.7,0.9-5.3,1.9-7.8,3.1l-3.9-8.7c3.1-1.6,6.5-2.9,10.2-3.7
			c3.7-0.8,7.2-1.3,10.5-1.3c7.3,0,12.8,1.6,16.5,4.8c3.7,3.2,5.6,8.2,5.6,15v38.6H456.9z M438.8,223c4.4,0,8-1.2,10.6-3.7
			c2.7-2.5,4-5.9,4-10.4v-5l-7.3,0.3c-5.7,0.2-9.9,1.2-12.5,2.9c-2.6,1.7-3.9,4.3-3.9,7.8c0,2.6,0.8,4.5,2.3,5.9
			C433.5,222.3,435.7,223,438.8,223z"/>
		<path fill="#93B31E" d="M531.7,231.3h-12.2v-35.2c0-4.4-0.9-7.7-2.7-9.9c-1.8-2.2-4.6-3.3-8.5-3.3c-5.1,0-8.9,1.5-11.3,4.6
			c-2.4,3-3.6,8.1-3.6,15.3v28.5h-12.2v-57.2h9.5l1.7,7.5h0.6c1.7-2.7,4.2-4.8,7.3-6.3c3.2-1.5,6.7-2.2,10.6-2.2
			c13.7,0,20.6,7,20.6,21V231.3z"/>
		<path fill="#93B31E" d="M586.4,215c0,5.6-2,9.9-6.1,12.9c-4.1,3-9.9,4.5-17.5,4.5c-7.6,0-13.8-1.2-18.4-3.5v-10.5
			c6.7,3.1,13,4.7,18.8,4.7c7.5,0,11.2-2.3,11.2-6.8c0-1.4-0.4-2.7-1.2-3.6c-0.8-1-2.2-2-4.1-3c-1.9-1-4.5-2.2-7.9-3.5
			c-6.6-2.6-11.1-5.1-13.4-7.7c-2.3-2.6-3.5-5.9-3.5-9.9c0-4.9,2-8.7,5.9-11.4c4-2.7,9.3-4.1,16.1-4.1c6.7,0,13.1,1.4,19.1,4.1
			l-3.9,9.2c-6.2-2.6-11.4-3.8-15.6-3.8c-6.4,0-9.6,1.8-9.6,5.5c0,1.8,0.8,3.3,2.5,4.6s5.3,3,10.9,5.1c4.7,1.8,8.2,3.5,10.3,5
			c2.1,1.5,3.7,3.3,4.8,5.3S586.4,212.3,586.4,215z"/>
		<path fill="#93B31E" d="M611.3,231.3h-12.2v-80.5h12.2V231.3z"/>
		<path fill="#93B31E" d="M664.1,231.3l-2.4-8h-0.4c-2.8,3.5-5.5,5.9-8.3,7.1c-2.8,1.3-6.4,1.9-10.8,1.9c-5.6,0-10-1.5-13.2-4.6
			c-3.2-3-4.7-7.3-4.7-12.9c0-5.9,2.2-10.4,6.6-13.4c4.4-3,11.1-4.6,20-4.9l9.9-0.3v-3.1c0-3.7-0.9-6.4-2.6-8.2
			c-1.7-1.8-4.4-2.7-7.9-2.7c-2.9,0-5.7,0.4-8.4,1.3c-2.7,0.9-5.3,1.9-7.8,3.1l-3.9-8.7c3.1-1.6,6.5-2.9,10.2-3.7
			c3.7-0.8,7.2-1.3,10.5-1.3c7.3,0,12.8,1.6,16.5,4.8c3.7,3.2,5.6,8.2,5.6,15v38.6H664.1z M645.9,223c4.4,0,8-1.2,10.6-3.7
			c2.7-2.5,4-5.9,4-10.4v-5l-7.3,0.3c-5.7,0.2-9.9,1.2-12.5,2.9c-2.6,1.7-3.9,4.3-3.9,7.8c0,2.6,0.8,4.5,2.3,5.9
			C640.6,222.3,642.9,223,645.9,223z"/>
		<path fill="#93B31E" d="M710.6,222.5c3,0,5.9-0.5,8.9-1.4v9.2c-1.3,0.6-3.1,1.1-5.2,1.5c-2.1,0.4-4.3,0.6-6.6,0.6
			c-11.5,0-17.3-6.1-17.3-18.2v-30.8h-7.8v-5.4l8.4-4.5l4.1-12.1h7.5v12.7H719v9.2h-16.3v30.6c0,2.9,0.7,5.1,2.2,6.5
			C706.3,221.8,708.3,222.5,710.6,222.5z"/>
		<path fill="#93B31E" d="M755.6,232.4c-8.9,0-15.9-2.6-20.9-7.8c-5-5.2-7.5-12.3-7.5-21.5c0-9.4,2.3-16.7,7-22
			c4.7-5.3,11.1-8,19.2-8c7.6,0,13.5,2.3,17.9,6.9c4.4,4.6,6.6,10.9,6.6,18.9v6.6h-38.1c0.2,5.6,1.7,9.8,4.5,12.8
			c2.8,3,6.8,4.5,12,4.5c3.4,0,6.5-0.3,9.4-1s6-1.7,9.4-3.2v9.9c-3,1.4-6,2.4-9,3C762.9,232.1,759.4,232.4,755.6,232.4z
			 M753.3,182.3c-3.9,0-7,1.2-9.3,3.7c-2.3,2.5-3.7,6-4.2,10.7h26c-0.1-4.7-1.2-8.3-3.4-10.7C760.2,183.5,757.2,182.3,753.3,182.3z"
			/>
	</g>
	<g>
		<g>
			<path fill="#93B31E" d="M431.7,140.9l-6.9-18.7c11.3-2.8,18.7-9.2,21.3-23.6l-29.2-77.3h24.1l15.5,46.9l16.5-46.9h23.8
				C460.7,118.5,462.3,130.5,431.7,140.9z"/>
			<path fill="#93B31E" d="M536.7,98.8c-28.2,0-39.3-18.8-39.3-40.6c0-21,11.2-39.8,39.3-39.8c28.6,0,38.8,17.7,38.8,39.7
				C575.5,79.6,564.8,98.8,536.7,98.8z M536.7,35.5c-8.1-0.2-17,4.4-17,22.9c0,16.5,7.5,23.1,17,23.2c8.1,0.1,16.6-4.8,16.6-23.2
				C553.3,39.9,544.6,35.3,536.7,35.5z"/>
			<path fill="#93B31E" d="M771.1,114.7c-16-2.7-31.2-15.6-31.2-37.4V39h-11.4V21.3h11.4V0h22.5v21.3h14.5V39h-14.5v40.7
				c0.1,8.9,6.1,15.9,15.5,17.1L771.1,114.7z"/>
		</g>
		<path fill="#93B31E" d="M632.6,98.8l-3.9-9.4c-25,19.2-49.2,6.1-49.2-12.9c0-25.3,24.6-28.4,47.7-28.4c0-5.2,0.8-12.2-8.6-12.2
			c-10.4,0-21.3,3.1-28.6,6.6L582.3,24c9.9-3.4,67.7-17.6,67.7,18.7v30.6c0,5.9,2.3,15,4.2,25.6H632.6z M627.4,64.3
			c-11,0-25.2,0.2-24.5,11.2c0.4,6.5,12.3,11.2,24.5-2.5V64.3z"/>
		<path fill="#93B31E" d="M658.9,93.3l7.8-18.5c4.9,1.7,33.9,13.4,34.2,0.7c0.2-9.2-40.2-6.3-40-34.2c0.2-26.7,35.1-26.1,60.8-18.3
			L714,41.3c-19-8.7-30.1-6.2-30.1,0c0,10.9,40,4.6,40,34.2C723.9,102.9,685.2,101.8,658.9,93.3z"/>
	</g>
	<g>
		<path fill="#71327A" d="M359.3,87.1h-58.2c-5,0-9-4-9-9V28c0-5,4-9,9-9h58.2c5,0,9,4,9,9v50.1C368.3,83,364.2,87.1,359.3,87.1z"/>
		<polygon fill="#71327A" points="309.8,73.1 307.6,109.7 339.1,80.3 		"/>
	</g>
</g>
</svg>
